<svg version="1.1" xmlns="http://www.w3.org/2000/svg" xmlns:xlink="http://www.w3.org/1999/xlink" x="0px" y="0px"
	 viewBox="0 0 48 48" enable-background="new 0 0 48 48" xml:space="preserve" width="48" height="48">
<defs>
	<filter id="Adobe_OpacityMaskFilter" filterUnits="userSpaceOnUse" x="9.2" y="12.6" width="38.4" height="31.3">
		<feColorMatrix  type="matrix" values="1 0 0 0 0  0 1 0 0 0  0 0 1 0 0  0 0 0 1 0"/>
	</filter>
</defs>
<mask maskUnits="userSpaceOnUse" x="9.2" y="12.6" width="38.4" height="31.3" id="path-2-inside-1_487_26032_00000149377457938800732460000016465402929109930649_">
	<path fill-rule="evenodd" clip-rule="evenodd" fill="#FFFFFF" filter="url(#Adobe_OpacityMaskFilter)" d="M9.3,12.7
		c0,0,0,5.1,0,11.4v11.3H24h14.7V24V12.7H24C12.3,12.7,9.3,12.7,9.3,12.7z M36.8,14.6c0,0,0,2.6,0,9.5v9.4H24c-10.2,0-12.8,0-12.9,0
		c0,0,0-4.3,0-9.4c0-8.4,0-9.4,0.1-9.4c0.1-0.1,1.3-0.1,12.8-0.1C34.7,14.5,36.7,14.6,36.8,14.6z M31.4,16.6
		c-0.4,0.2-0.7,0.3-1.1,0.7c-0.2,0.2-0.6,0.7-0.7,1c-0.2,0.5-0.2,0.6-0.2,1.1s0.1,0.9,0.3,1.4c0.2,0.4,0.8,1,1.1,1.1
		c0.4,0.2,0.5,0.2,0.8,0.3c0.4,0.1,0.6,0.1,1,0c1-0.2,1.9-1,2.2-2.1c0.1-0.3,0.1-1.1,0-1.4c-0.3-1-1-1.7-1.9-2
		C32.6,16.4,31.8,16.4,31.4,16.6z M17.2,18.5c-0.1,0.1-0.3,0.2-0.4,0.2c-0.1,0.1-0.6,0.8-0.6,0.8s0,0.1-0.1,0.1
		c-0.1,0.2-0.6,1.2-0.8,1.6c0,0.1-0.1,0.2-0.1,0.3c-0.1,0.1-0.6,1.8-0.7,2.1c-0.1,0.4-0.2,0.6-0.2,0.8c0,0.1-0.1,0.3-0.1,0.3
		c-0.1,0.4-0.4,1.5-0.5,2.1c0,0.1-0.1,0.3-0.1,0.5s-0.1,0.4-0.1,0.5s-0.1,0.3-0.1,0.5c-0.1,0.3-0.2,0.9-0.3,1.7
		c0,0.2-0.1,0.5-0.1,0.6s-0.1,0.4-0.1,0.6s-0.1,0.4,0,0.4c0,0.1,22.2,0,22.2,0s-0.5-0.7-1.3-1.7c-1.3-1.6-2.1-2.5-3.2-3.6
		c-1.7-1.8-2.5-2.3-3.2-2.2c-0.2,0.1-0.5,0.3-0.7,0.6s-0.2,0.3-0.6,1.1c-0.4,0.8-0.6,1.1-0.9,1.4s-0.4,0.4-0.8,0.5
		c-0.6,0.2-1.1-0.1-1.7-0.9c-0.1-0.2-0.2-0.3-0.2-0.3s0-0.1-0.1-0.2c-0.2-0.4-0.5-1-1-2.3c-0.3-0.8-0.3-0.8-0.5-1.1
		c0-0.1-0.1-0.3-0.2-0.4c-0.1-0.4-0.5-1.1-0.7-1.6c-0.5-1-0.8-1.5-1.3-2c-0.2-0.4-0.5-0.5-0.9-0.5C17.5,18.4,17.4,18.4,17.2,18.5z
		 M39.5,19.8c0,0,0,0.5,0,1v1l1.1,0.5c0.6,0.3,1.1,0.5,1.2,0.5c0,0,0.3,0.1,0.5,0.2s0.5,0.2,0.6,0.2s0.3,0.1,0.5,0.2
		s0.5,0.2,0.5,0.2c0.1,0,0.2,0.1,0.2,0.1s0.1,0,0.2,0.1c0.1,0.1,0.2,0.1,0.3,0.1h0.1c0,0,0.2,0.1,0.3,0.1c0.2,0.1,0.2,0.1,0.2,0.2
		s-0.1,0.2-0.1,0.2c0,0.1-0.1,0.2-0.2,0.5c-0.1,0.2-0.4,1-1.4,3.6c-0.5,1.3-1,2.5-1,2.6s-0.1,0.3-0.1,0.3c0,0.1-0.1,0.2-0.1,0.2v0.1
		c0,0,0,0.2-0.1,0.3C42,32.4,42,32.5,42,32.5s0,0.1-0.1,0.2c-0.4,0.6-0.5,0.7-0.5,0.7s0,0.1-0.1,0.3c-0.1,0.1-0.1,0.2-0.1,0.3
		c0,0,0,0.1-0.1,0.3c-0.1,0.1-0.3,0.6-0.5,1.1c-0.8,2.1-1.5,3.6-1.5,3.8c-0.1,0.3-0.1,0.3-0.3,0.9c-0.1,0.3-0.2,0.6-0.3,0.8
		c-0.2,0.4-0.2,0.5-0.3,0.7c-0.1,0.2-0.1,0.2-0.4,0.1c-0.3-0.2-0.6-0.3-1-0.4c-0.2-0.1-0.5-0.2-0.7-0.3c-0.1-0.1-0.2-0.1-0.3-0.1
		s-0.1,0-0.2-0.1c-0.1-0.1-0.2-0.1-0.3-0.1h-0.1c-0.1-0.1-0.5-0.3-0.7-0.3c-0.1,0-0.3-0.1-0.4-0.2c-0.1,0-0.2-0.1-0.2-0.1h-0.1
		c0,0-0.3-0.1-0.5-0.2c-0.2-0.1-0.5-0.2-0.5-0.2c-0.2-0.1-0.4-0.2-0.5-0.2c-0.1,0-0.2-0.1-0.2-0.1H32c0,0-0.2-0.1-0.3-0.1
		c-0.3-0.2-0.4-0.2-0.6-0.3c-0.1,0-0.3-0.1-0.4-0.2c-0.1,0-0.2-0.1-0.2-0.1s0-0.3-0.1-0.3s-0.4-0.2-0.6-0.3c-0.3-0.1-1.3-0.5-2.2-1
		c-1-0.4-1.8-0.8-1.9-0.8c0,0-0.2-0.1-0.3-0.2L25.2,36h-2.4c-1.9,0-2.4,0-2.4,0s0.1,0.1,0.2,0.1c0.2,0.1,0.6,0.3,0.7,0.3h0.1
		c0,0,0.1,0,0.3,0.1c0.1,0.1,0.2,0.1,0.3,0.1h0.1c0,0,0.5,0.2,1.1,0.5c0.6,0.2,1.1,0.5,1.2,0.5s0.9,0.4,1.8,0.8c2,0.8,1.8,0.8,2,0.8
		c0.1,0,0.2,0.1,0.2,0.1s0.2,0.1,0.6,0.3c0.1,0.1,0.2,0.1,0.3,0.1h0.1c0,0,0.2,0.1,0.4,0.2c0.2,0.1,0.4,0.2,0.5,0.2s0.3,0.1,0.5,0.2
		c0.2,0.1,0.3,0.1,0.3,0.2h0.1c0,0,0.2,0,0.3,0.1c0.3,0.1,0.9,0.4,1.8,0.8c0.4,0.2,0.7,0.3,0.7,0.3s0.7,0.3,1.5,0.6S37,42.9,37,43
		c0.1,0,0.2,0.1,0.3,0.1c0.2,0.1,0.2,0.1,0.6,0.3c0.1,0.1,0.3,0.2,0.5,0.2s0.4,0.2,0.5,0.2c0.3,0.1,0.2,0.2,0.7-0.9
		c0.1-0.2,0.1-0.3,0.2-0.5c0-0.1,0.1-0.2,0.1-0.2c0-0.1,0.1-0.2,0.1-0.3s0.2-0.5,0.4-0.9c0.2-0.4,0.3-0.8,0.4-0.9
		c0.1-0.1,0.1-0.2,0.1-0.3v-0.1c0.1-0.1,0.2-0.5,0.6-1.6c0.2-0.6,0.5-1.2,0.5-1.3s0.1-0.3,0.2-0.4c0.1-0.1,0.1-0.3,0.1-0.4
		c0-0.1,0.1-0.2,0.1-0.4c0.1-0.1,0.1-0.3,0.2-0.4c0-0.1,0.1-0.2,0.1-0.2s0-0.1,0.1-0.2c0-0.1,0.1-0.3,0.2-0.5
		c0.1-0.2,0.2-0.4,0.2-0.5c0-0.1,0.1-0.2,0.1-0.3l0.1-0.2c0-0.1,0.1-0.4,0.3-0.6c0.1-0.3,0.2-0.6,0.3-0.7s0.1-0.2,0.1-0.3
		s0-0.1,0.1-0.3c0.1-0.1,0.1-0.2,0.1-0.3c0,0,0-0.1,0.1-0.2s1-2.5,1.4-3.5c0.1-0.2,0.2-0.4,0.2-0.6c0.2-0.4,0.2-0.5,0.3-0.8
		c0.1-0.2,0.1-0.4,0.2-0.5c0.1-0.1,0.1-0.3,0.2-0.4c0.1-0.3,0.1-0.4,0.2-0.4v-0.1c0,0,0-0.2,0.1-0.3s0.1-0.3,0.2-0.4
		c0-0.1,0.1-0.2,0.1-0.2c0-0.1,0.1-0.3,0.2-0.5c0.1-0.2,0.1-0.3,0.1-0.4c0,0,0-0.1-0.1-0.1s-0.2-0.1-0.3-0.1s-0.3-0.1-0.5-0.2
		c-0.2-0.1-0.4-0.2-0.5-0.2s-0.7-0.3-1.3-0.6c-0.7-0.3-1.3-0.5-1.3-0.6c-0.1,0-0.4-0.2-0.7-0.3s-0.6-0.3-0.7-0.3
		c-0.1,0-0.2-0.1-0.4-0.1c-0.3-0.1-0.3-0.1-0.6-0.3c-0.1-0.1-0.3-0.1-0.3-0.1s-0.1-0.1-0.3-0.1c-0.3-0.1-0.3-0.1-0.7-0.3
		c-0.1-0.1-0.3-0.1-0.3-0.2C39.5,19.7,39.5,19.7,39.5,19.8z"/>
</mask>
<path mask="url(#path-2-inside-1_487_26032_00000149377457938800732460000016465402929109930649_)" fill-rule="evenodd" clip-rule="evenodd" fill="#62688E" stroke="#62688E" stroke-width="0.1205" d="
	M9.3,12.7c0,0,0,5.1,0,11.4v11.3H24h14.7V24V12.7H24C12.3,12.7,9.3,12.7,9.3,12.7z M36.8,14.6c0,0,0,2.6,0,9.5v9.4H24
	c-10.2,0-12.8,0-12.9,0c0,0,0-4.3,0-9.4c0-8.4,0-9.4,0.1-9.4c0.1-0.1,1.3-0.1,12.8-0.1C34.7,14.5,36.7,14.6,36.8,14.6z M31.4,16.6
	c-0.4,0.2-0.7,0.3-1.1,0.7c-0.2,0.2-0.6,0.7-0.7,1c-0.2,0.5-0.2,0.6-0.2,1.1s0.1,0.9,0.3,1.4c0.2,0.4,0.8,1,1.1,1.1
	c0.4,0.2,0.5,0.2,0.8,0.3c0.4,0.1,0.6,0.1,1,0c1-0.2,1.9-1,2.2-2.1c0.1-0.3,0.1-1.1,0-1.4c-0.3-1-1-1.7-1.9-2
	C32.6,16.4,31.8,16.4,31.4,16.6z M17.2,18.5c-0.1,0.1-0.3,0.2-0.4,0.2c-0.1,0.1-0.6,0.8-0.6,0.8s0,0.1-0.1,0.1
	c-0.1,0.2-0.6,1.2-0.8,1.6c0,0.1-0.1,0.2-0.1,0.3c-0.1,0.1-0.6,1.8-0.7,2.1c-0.1,0.4-0.2,0.6-0.2,0.8c0,0.1-0.1,0.3-0.1,0.3
	c-0.1,0.4-0.4,1.5-0.5,2.1c0,0.1-0.1,0.3-0.1,0.5s-0.1,0.4-0.1,0.5s-0.1,0.3-0.1,0.5c-0.1,0.3-0.2,0.9-0.3,1.7
	c0,0.2-0.1,0.5-0.1,0.6s-0.1,0.4-0.1,0.6s-0.1,0.4,0,0.4c0,0.1,22.2,0,22.2,0s-0.5-0.7-1.3-1.7c-1.3-1.6-2.1-2.5-3.2-3.6
	c-1.7-1.8-2.5-2.3-3.2-2.2c-0.2,0.1-0.5,0.3-0.7,0.6s-0.2,0.3-0.6,1.1c-0.4,0.8-0.6,1.1-0.9,1.4s-0.4,0.4-0.8,0.5
	c-0.6,0.2-1.1-0.1-1.7-0.9c-0.1-0.2-0.2-0.3-0.2-0.3s0-0.1-0.1-0.2c-0.2-0.4-0.5-1-1-2.3c-0.3-0.8-0.3-0.8-0.5-1.1
	c0-0.1-0.1-0.3-0.2-0.4c-0.1-0.4-0.5-1.1-0.7-1.6c-0.5-1-0.8-1.5-1.3-2c-0.2-0.4-0.5-0.5-0.9-0.5C17.5,18.4,17.4,18.4,17.2,18.5z
	 M39.5,19.8c0,0,0,0.5,0,1v1l1.1,0.5c0.6,0.3,1.1,0.5,1.2,0.5c0,0,0.3,0.1,0.5,0.2s0.5,0.2,0.6,0.2s0.3,0.1,0.5,0.2s0.5,0.2,0.5,0.2
	c0.1,0,0.2,0.1,0.2,0.1s0.1,0,0.2,0.1c0.1,0.1,0.2,0.1,0.3,0.1h0.1c0,0,0.2,0.1,0.3,0.1c0.2,0.1,0.2,0.1,0.2,0.2s-0.1,0.2-0.1,0.2
	c0,0.1-0.1,0.2-0.2,0.5c-0.1,0.2-0.4,1-1.4,3.6c-0.5,1.3-1,2.5-1,2.6s-0.1,0.3-0.1,0.3c0,0.1-0.1,0.2-0.1,0.2v0.1c0,0,0,0.2-0.1,0.3
	C42,32.4,42,32.5,42,32.5s0,0.1-0.1,0.2c-0.4,0.6-0.5,0.7-0.5,0.7s0,0.1-0.1,0.3c-0.1,0.1-0.1,0.2-0.1,0.3c0,0,0,0.1-0.1,0.3
	c-0.1,0.1-0.3,0.6-0.5,1.1c-0.8,2.1-1.5,3.6-1.5,3.8c-0.1,0.3-0.1,0.3-0.3,0.9c-0.1,0.3-0.2,0.6-0.3,0.8c-0.2,0.4-0.2,0.5-0.3,0.7
	c-0.1,0.2-0.1,0.2-0.4,0.1c-0.3-0.2-0.6-0.3-1-0.4c-0.2-0.1-0.5-0.2-0.7-0.3c-0.1-0.1-0.2-0.1-0.3-0.1s-0.1,0-0.2-0.1
	c-0.1-0.1-0.2-0.1-0.3-0.1h-0.1c-0.1-0.1-0.5-0.3-0.7-0.3c-0.1,0-0.3-0.1-0.4-0.2c-0.1,0-0.2-0.1-0.2-0.1h-0.1c0,0-0.3-0.1-0.5-0.2
	c-0.2-0.1-0.5-0.2-0.5-0.2c-0.2-0.1-0.4-0.2-0.5-0.2c-0.1,0-0.2-0.1-0.2-0.1H32c0,0-0.2-0.1-0.3-0.1c-0.3-0.2-0.4-0.2-0.6-0.3
	c-0.1,0-0.3-0.1-0.4-0.2c-0.1,0-0.2-0.1-0.2-0.1s0-0.3-0.1-0.3s-0.4-0.2-0.6-0.3c-0.3-0.1-1.3-0.5-2.2-1c-1-0.4-1.8-0.8-1.9-0.8
	c0,0-0.2-0.1-0.3-0.2L25.2,36h-2.4c-1.9,0-2.4,0-2.4,0s0.1,0.1,0.2,0.1c0.2,0.1,0.6,0.3,0.7,0.3h0.1c0,0,0.1,0,0.3,0.1
	c0.1,0.1,0.2,0.1,0.3,0.1h0.1c0,0,0.5,0.2,1.1,0.5c0.6,0.2,1.1,0.5,1.2,0.5s0.9,0.4,1.8,0.8c2,0.8,1.8,0.8,2,0.8
	c0.1,0,0.2,0.1,0.2,0.1s0.2,0.1,0.6,0.3c0.1,0.1,0.2,0.1,0.3,0.1h0.1c0,0,0.2,0.1,0.4,0.2c0.2,0.1,0.4,0.2,0.5,0.2s0.3,0.1,0.5,0.2
	c0.2,0.1,0.3,0.1,0.3,0.2h0.1c0,0,0.2,0,0.3,0.1c0.3,0.1,0.9,0.4,1.8,0.8c0.4,0.2,0.7,0.3,0.7,0.3s0.7,0.3,1.5,0.6S37,42.9,37,43
	c0.1,0,0.2,0.1,0.3,0.1c0.2,0.1,0.2,0.1,0.6,0.3c0.1,0.1,0.3,0.2,0.5,0.2s0.4,0.2,0.5,0.2c0.3,0.1,0.2,0.2,0.7-0.9
	c0.1-0.2,0.1-0.3,0.2-0.5c0-0.1,0.1-0.2,0.1-0.2c0-0.1,0.1-0.2,0.1-0.3s0.2-0.5,0.4-0.9c0.2-0.4,0.3-0.8,0.4-0.9
	c0.1-0.1,0.1-0.2,0.1-0.3v-0.1c0.1-0.1,0.2-0.5,0.6-1.6c0.2-0.6,0.5-1.2,0.5-1.3s0.1-0.3,0.2-0.4c0.1-0.1,0.1-0.3,0.1-0.4
	c0-0.1,0.1-0.2,0.1-0.4c0.1-0.1,0.1-0.3,0.2-0.4c0-0.1,0.1-0.2,0.1-0.2s0-0.1,0.1-0.2c0-0.1,0.1-0.3,0.2-0.5
	c0.1-0.2,0.2-0.4,0.2-0.5c0-0.1,0.1-0.2,0.1-0.3l0.1-0.2c0-0.1,0.1-0.4,0.3-0.6c0.1-0.3,0.2-0.6,0.3-0.7s0.1-0.2,0.1-0.3
	s0-0.1,0.1-0.3c0.1-0.1,0.1-0.2,0.1-0.3c0,0,0-0.1,0.1-0.2s1-2.5,1.4-3.5c0.1-0.2,0.2-0.4,0.2-0.6c0.2-0.4,0.2-0.5,0.3-0.8
	c0.1-0.2,0.1-0.4,0.2-0.5c0.1-0.1,0.1-0.3,0.2-0.4c0.1-0.3,0.1-0.4,0.2-0.4v-0.1c0,0,0-0.2,0.1-0.3s0.1-0.3,0.2-0.4
	c0-0.1,0.1-0.2,0.1-0.2c0-0.1,0.1-0.3,0.2-0.5c0.1-0.2,0.1-0.3,0.1-0.4c0,0,0-0.1-0.1-0.1s-0.2-0.1-0.3-0.1s-0.3-0.1-0.5-0.2
	c-0.2-0.1-0.4-0.2-0.5-0.2s-0.7-0.3-1.3-0.6c-0.7-0.3-1.3-0.5-1.3-0.6c-0.1,0-0.4-0.2-0.7-0.3s-0.6-0.3-0.7-0.3
	c-0.1,0-0.2-0.1-0.4-0.1c-0.3-0.1-0.3-0.1-0.6-0.3c-0.1-0.1-0.3-0.1-0.3-0.1s-0.1-0.1-0.3-0.1c-0.3-0.1-0.3-0.1-0.7-0.3
	c-0.1-0.1-0.3-0.1-0.3-0.2C39.5,19.7,39.5,19.7,39.5,19.8z"/>
</svg>
